<svg xmlns="http://www.w3.org/2000/svg" viewBox="500 1500 1000 1000" role="img" aria-label="Tradeflow">
  <path fill="#D4AF37" fill-opacity="0.97" d="M1452.6,1626h-337.1v0H778.8h-46.3l-32.8,32.7l-44.2,44.1l-32.8,32.7l-11.6,11.6l-32.6,32.6l-11.6,11.6l0,0
    l-21.2,21.2h46.3h337.1v108.7v32.7v121v32.7h32.7h44.1v143.2l-6.8,6.8l-37.4,37.4v-154.7h-32.7V2374l0,0v0l87.1-87.1l6.1-6.1
    l16.4,16.3l0,0l0,0l44.1,44.1l32.7,32.7l0-46.3v-220.1h64.8h11.6l32.7-32.7l44.1-44.1l0,0h0l5-5l27.7-27.7l44.1-44.2l32.7-32.7
    h-46.3h-216.5h-32.7h-44.1v-185.6H1343l0,0l-44.1,44.1h-216v32.7h0v76h32.7v-76h185.2v0h11.6l0,0l32.7-32.7l0,0l44.1-44.1l0,0
    l32.7-32.7l44.1-44.1l32.7-32.7H1452.6z M1082.9,2295l-37.4-37.4l0,0l-6.8-6.8v0h0v0l0,0v-143.2h44.1V2295z M1222.6,2030.8
    l-44.1,44.1h-62.8v0h-32.7v0h-44.1h-32.7h-44.1v-44.1L1222.6,2030.8L1222.6,2030.8z M1082.9,1953.9h32.7h183.8l-44.1,44.1H961.9
    v-44.1h44.1v0h32.7v0H1082.9z M961.9,1921.2v-108.7h0v-32.7H624.8l32.6-32.6l11.6-11.6h337.1v185.6H961.9z M1375.8,1702.9h-337v0h0
    v0h-32.7v0H701.8l44.2-44.1h183.2v0h490.7L1375.8,1702.9z"/>
</svg>
