<svg xmlns="http://www.w3.org/2000/svg" viewBox="500 1580 3050 840" role="img" aria-label="Tradeflow">
  <!-- Flow-T monogram (gold) -->
  <path fill="#D4AF37" fill-opacity="0.97" d="M1452.6,1626h-337.1v0H778.8h-46.3l-32.8,32.7l-44.2,44.1l-32.8,32.7l-11.6,11.6l-32.6,32.6l-11.6,11.6l0,0l-21.2,21.2h46.3h337.1v108.7v32.7v121v32.7h32.7h44.1v143.2l-6.8,6.8l-37.4,37.4v-154.7h-32.7V2374l0,0v0l87.1-87.1l6.1-6.1l16.4,16.3l0,0l0,0l44.1,44.1l32.7,32.7l0-46.3v-220.1h64.8h11.6l32.7-32.7l44.1-44.1l0,0h0l5-5l27.7-27.7l44.1-44.2l32.7-32.7h-46.3h-216.5h-32.7h-44.1v-185.6H1343l0,0l-44.1,44.1h-216v32.7h0v76h32.7v-76h185.2v0h11.6l0,0l32.7-32.7l0,0l44.1-44.1l0,0l32.7-32.7l44.1-44.1l32.7-32.7H1452.6z M1082.9,2295l-37.4-37.4l0,0l-6.8-6.8v0h0v0l0,0v-143.2h44.1V2295z M1222.6,2030.8l-44.1,44.1h-62.8v0h-32.7v0h-44.1h-32.7h-44.1v-44.1L1222.6,2030.8L1222.6,2030.8z M1082.9,1953.9h32.7h183.8l-44.1,44.1H961.9v-44.1h44.1v0h32.7v0H1082.9z M961.9,1921.2v-108.7h0v-32.7H624.8l32.6-32.6l11.6-11.6h337.1v185.6H961.9z M1375.8,1702.9h-337v0h0v0h-32.7v0H701.8l44.2-44.1h183.2v0h490.7L1375.8,1702.9z"/>
  <!-- TRADE (gold) -->
  <g fill="#D4AF37" fill-opacity="0.97">
    <path d="M1550.5,2107.3h-36.8v-150.1h-71.4v-35.4h179.5v35.4h-71.4V2107.3z"/>
    <path d="M1752.5,2034.8h-53.2v72.5h-36.8v-185.5h106.4c3,0,6.4,0.2,10.1,0.5c3.7,0.4,7.6,1.1,11.6,2.1c4,1,7.9,2.6,11.9,4.7c4,2.1,7.7,4.9,11.2,8.4c6.3,6.3,10.4,13.3,12.3,21c1.9,7.7,2.8,14.7,2.8,21c0,5.4-0.6,11-1.9,16.8c-1.3,5.8-4.1,11.6-8.6,17.2c-6.3,8.2-14.9,14.2-25.9,18.2l44.1,75.6h-41.3L1752.5,2034.8z M1766.5,1999.1c3.3,0,6.5-0.3,9.8-0.9c3.3-0.6,6.2-2.2,8.8-4.7c2.1-2.1,3.6-4.6,4.5-7.5c0.9-2.9,1.4-5.9,1.4-8.9c0-4.4-0.8-8-2.4-10.7c-1.6-2.7-3.4-4.6-5.3-5.8c-2.6-1.9-5.6-2.9-9.1-3.1c-3.5-0.2-7-0.4-10.5-0.4h-64.4v42H1766.5z"/>
    <path d="M2010.4,2061.4h-84.3l-22.1,45.8h-40.6l91-185.5h27.7l91.7,185.5h-40.6L2010.4,2061.4z M1943.6,2026.1h49.3l-24.8-49.7L1943.6,2026.1z"/>
    <path d="M2123.8,2107.3v-185.5h80.8c14.7,0,28.1,2.3,40.1,7c12,4.7,22.2,11.1,30.6,19.4c8.4,8.3,14.9,18.1,19.4,29.6c4.5,11.4,6.8,23.8,6.8,37.1c0,13.3-2.2,25.6-6.7,36.9c-4.4,11.3-10.8,21.1-19.1,29.2c-8.3,8.2-18.4,14.6-30.4,19.3c-12,4.7-25.6,7-40.8,7H2123.8z M2160.9,1957.1v114.8h43.8c19.8,0,34.7-5.3,44.6-15.8c9.9-10.5,14.9-24.4,14.9-41.7c0-16.8-5.2-30.6-15.6-41.3c-10.4-10.7-25-16.1-43.9-16.1H2160.9z"/>
    <path d="M2369.5,1921.8h149.1v35.4h-112.3v33.9h68.3v35.4h-68.3v45.5h119.3v35.3h-156.1V1921.8z"/>
  </g>
  <!-- FLOW (slate-900 for light surfaces) -->
  <g fill="#0F172A">
    <path d="M2624,1991.1h67.9v35.4H2624v80.8h-36.8v-185.5h149.1v35.4H2624V1991.1z"/>
    <path d="M2787.8,1921.8h37.1v150.2h111v35.3h-148V1921.8z"/>
    <path d="M3071.6,2111.8c-13.8,0-26.5-2.4-38.2-7.3c-11.7-4.9-21.8-11.6-30.4-20.1c-8.6-8.5-15.3-18.7-20.1-30.6c-4.8-11.9-7.2-24.8-7.2-38.8s2.4-27,7.2-38.9c4.8-11.9,11.5-22.1,20.1-30.6c8.6-8.5,18.8-15.2,30.4-20.1c11.7-4.9,24.4-7.4,38.2-7.4c13.8,0,26.5,2.5,38.3,7.4c11.8,4.9,21.9,11.6,30.5,20.1c8.5,8.5,15.2,18.7,20.1,30.6c4.9,11.9,7.3,24.9,7.3,38.9s-2.5,26.9-7.3,38.8c-4.9,11.9-11.6,22.1-20.1,30.6c-8.5,8.5-18.7,15.2-30.5,20.1C3098.2,2109.4,3085.4,2111.8,3071.6,2111.8z M3071.6,1953.6c-8.2,0-15.8,1.5-22.9,4.5c-7.1,3-13.3,7.2-18.5,12.6c-5.3,5.4-9.3,11.8-12.3,19.3c-2.9,7.5-4.4,15.8-4.4,24.9c0,9.1,1.5,17.4,4.4,24.8c2.9,7.5,7,13.9,12.3,19.4c5.3,5.5,11.4,9.7,18.5,12.6c7.1,2.9,14.8,4.4,22.9,4.4c8.4,0,16.2-1.5,23.3-4.6c7.1-3,13.3-7.2,18.5-12.6c5.3-5.4,9.3-11.8,12.3-19.3c2.9-7.5,4.4-15.8,4.4-24.8c0-9.1-1.5-17.4-4.4-24.9c-2.9-7.5-7-13.9-12.3-19.3c-5.3-5.4-11.4-9.6-18.5-12.6C3087.8,1955.2,3080,1953.6,3071.6,1953.6z"/>
    <path d="M3368.8,2107.3l-40.6-120.8l-40.3,120.8h-25.2l-60.5-185.5h37.1l36.8,116.5l38.8-116.5h27.3L3381,2038l36.8-116.2h36.4l-60.2,185.5H3368.8z"/>
  </g>
</svg>
