<svg xmlns="http://www.w3.org/2000/svg" viewBox="0 0 560 400" fill="none">
  <defs>
    <linearGradient id="dbg" x1="0" y1="0" x2="560" y2="400" gradientUnits="userSpaceOnUse">
      <stop offset="0%" stop-color="#111113"/>
      <stop offset="100%" stop-color="#0a0a0b"/>
    </linearGradient>
    <clipPath id="round"><rect width="560" height="400" rx="12"/></clipPath>
  </defs>
  <rect width="560" height="400" rx="12" fill="url(#dbg)"/>
  <g clip-path="url(#round)">
    <!-- Top bar -->
    <rect x="0" y="0" width="560" height="44" fill="#0f0f11"/>
    <line x1="0" y1="44" x2="560" y2="44" stroke="rgba(255,255,255,0.06)" stroke-width="1"/>
    <circle cx="18" cy="22" r="5" fill="#D4AF37" fill-opacity="0.8"/>
    <text x="30" y="26" fill="white" font-family="sans-serif" font-size="12" font-weight="600" opacity="0.8">Tradeflow</text>
    <text x="106" y="26" fill="white" font-family="sans-serif" font-size="11" opacity="0.3">Dashboard</text>
    <!-- Green status dot -->
    <circle cx="520" cy="22" r="4" fill="#22c55e" fill-opacity="0.7"/>
    <text x="496" y="26" fill="white" font-family="sans-serif" font-size="10" opacity="0.3" text-anchor="end">Live</text>

    <!-- Stats row -->
    <rect x="20" y="60" width="122" height="56" rx="8" fill="rgba(255,255,255,0.03)" stroke="rgba(255,255,255,0.06)" stroke-width="1"/>
    <text x="34" y="80" fill="white" font-family="sans-serif" font-size="9" opacity="0.35" text-transform="uppercase" letter-spacing="1">NEW LEADS</text>
    <text x="34" y="102" fill="#D4AF37" font-family="sans-serif" font-size="22" font-weight="700">12</text>
    <text x="60" y="102" fill="#22c55e" font-family="sans-serif" font-size="10" opacity="0.7">+3 today</text>

    <rect x="156" y="60" width="122" height="56" rx="8" fill="rgba(255,255,255,0.03)" stroke="rgba(255,255,255,0.06)" stroke-width="1"/>
    <text x="170" y="80" fill="white" font-family="sans-serif" font-size="9" opacity="0.35" letter-spacing="1">CALLS TODAY</text>
    <text x="170" y="102" fill="white" font-family="sans-serif" font-size="22" font-weight="700">8</text>
    <text x="188" y="102" fill="white" font-family="sans-serif" font-size="10" opacity="0.35">/ 3 missed</text>

    <rect x="292" y="60" width="122" height="56" rx="8" fill="rgba(255,255,255,0.03)" stroke="rgba(255,255,255,0.06)" stroke-width="1"/>
    <text x="306" y="80" fill="white" font-family="sans-serif" font-size="9" opacity="0.35" letter-spacing="1">BOOKED</text>
    <text x="306" y="102" fill="#22c55e" font-family="sans-serif" font-size="22" font-weight="700">5</text>
    <text x="324" y="102" fill="white" font-family="sans-serif" font-size="10" opacity="0.35">this week</text>

    <rect x="428" y="60" width="112" height="56" rx="8" fill="rgba(255,255,255,0.03)" stroke="rgba(255,255,255,0.06)" stroke-width="1"/>
    <text x="442" y="80" fill="white" font-family="sans-serif" font-size="9" opacity="0.35" letter-spacing="1">REVENUE</text>
    <text x="442" y="102" fill="white" font-family="sans-serif" font-size="22" font-weight="700">$4.2k</text>

    <!-- Table header -->
    <rect x="20" y="132" width="520" height="32" rx="6" fill="rgba(255,255,255,0.02)"/>
    <text x="34" y="152" fill="white" font-family="sans-serif" font-size="10" opacity="0.35" font-weight="600">NAME</text>
    <text x="160" y="152" fill="white" font-family="sans-serif" font-size="10" opacity="0.35" font-weight="600">SERVICE</text>
    <text x="290" y="152" fill="white" font-family="sans-serif" font-size="10" opacity="0.35" font-weight="600">SOURCE</text>
    <text x="390" y="152" fill="white" font-family="sans-serif" font-size="10" opacity="0.35" font-weight="600">STATUS</text>
    <text x="490" y="152" fill="white" font-family="sans-serif" font-size="10" opacity="0.35" font-weight="600">TIME</text>

    <!-- Row 1 — New (gold highlight) -->
    <rect x="20" y="168" width="520" height="40" rx="4" fill="rgba(212,175,55,0.04)" stroke="rgba(212,175,55,0.1)" stroke-width="1"/>
    <circle cx="34" cy="188" r="4" fill="#D4AF37" fill-opacity="0.6"/>
    <text x="46" y="192" fill="white" font-family="sans-serif" font-size="12" font-weight="500" opacity="0.85">Mike Johnson</text>
    <text x="160" y="192" fill="white" font-family="sans-serif" font-size="11" opacity="0.45">AC Repair</text>
    <text x="290" y="192" fill="white" font-family="sans-serif" font-size="11" opacity="0.45">Google LSA</text>
    <rect x="390" y="180" width="42" height="18" rx="9" fill="rgba(212,175,55,0.15)"/>
    <text x="400" y="193" fill="#D4AF37" font-family="sans-serif" font-size="9" font-weight="600">NEW</text>
    <text x="490" y="192" fill="white" font-family="sans-serif" font-size="11" opacity="0.3">2m ago</text>

    <!-- Row 2 — Contacted -->
    <rect x="20" y="212" width="520" height="40" rx="4" fill="rgba(255,255,255,0.01)"/>
    <circle cx="34" cy="232" r="4" fill="rgba(255,255,255,0.15)"/>
    <text x="46" y="236" fill="white" font-family="sans-serif" font-size="12" font-weight="500" opacity="0.7">Sarah Williams</text>
    <text x="160" y="236" fill="white" font-family="sans-serif" font-size="11" opacity="0.4">Furnace Install</text>
    <text x="290" y="236" fill="white" font-family="sans-serif" font-size="11" opacity="0.4">Landing Page</text>
    <rect x="390" y="224" width="72" height="18" rx="9" fill="rgba(59,130,246,0.15)"/>
    <text x="400" y="237" fill="#60a5fa" font-family="sans-serif" font-size="9" font-weight="600">CONTACTED</text>
    <text x="490" y="236" fill="white" font-family="sans-serif" font-size="11" opacity="0.3">1h ago</text>

    <!-- Row 3 — Booked (green) -->
    <rect x="20" y="256" width="520" height="40" rx="4" fill="rgba(255,255,255,0.01)"/>
    <circle cx="34" cy="276" r="4" fill="rgba(255,255,255,0.15)"/>
    <text x="46" y="280" fill="white" font-family="sans-serif" font-size="12" font-weight="500" opacity="0.7">Tom Chen</text>
    <text x="160" y="280" fill="white" font-family="sans-serif" font-size="11" opacity="0.4">Maintenance</text>
    <text x="290" y="280" fill="white" font-family="sans-serif" font-size="11" opacity="0.4">Google LSA</text>
    <rect x="390" y="268" width="56" height="18" rx="9" fill="rgba(34,197,94,0.15)"/>
    <text x="400" y="281" fill="#22c55e" font-family="sans-serif" font-size="9" font-weight="600">BOOKED</text>
    <text x="490" y="280" fill="white" font-family="sans-serif" font-size="11" opacity="0.3">3h ago</text>

    <!-- Row 4 -->
    <rect x="20" y="300" width="520" height="40" rx="4" fill="rgba(255,255,255,0.01)"/>
    <circle cx="34" cy="320" r="4" fill="rgba(255,255,255,0.15)"/>
    <text x="46" y="324" fill="white" font-family="sans-serif" font-size="12" font-weight="500" opacity="0.7">Lisa Park</text>
    <text x="160" y="324" fill="white" font-family="sans-serif" font-size="11" opacity="0.4">AC Install</text>
    <text x="290" y="324" fill="white" font-family="sans-serif" font-size="11" opacity="0.4">Missed Call</text>
    <rect x="390" y="312" width="64" height="18" rx="9" fill="rgba(212,175,55,0.15)"/>
    <text x="400" y="325" fill="#D4AF37" font-family="sans-serif" font-size="9" font-weight="600">TEXTED</text>
    <text x="490" y="324" fill="white" font-family="sans-serif" font-size="11" opacity="0.3">5h ago</text>

    <!-- Row 5 -->
    <rect x="20" y="344" width="520" height="40" rx="4" fill="rgba(255,255,255,0.01)"/>
    <circle cx="34" cy="364" r="4" fill="rgba(255,255,255,0.15)"/>
    <text x="46" y="368" fill="white" font-family="sans-serif" font-size="12" font-weight="500" opacity="0.7">James Rivera</text>
    <text x="160" y="368" fill="white" font-family="sans-serif" font-size="11" opacity="0.4">Duct Cleaning</text>
    <text x="290" y="368" fill="white" font-family="sans-serif" font-size="11" opacity="0.4">Google LSA</text>
    <rect x="390" y="356" width="56" height="18" rx="9" fill="rgba(34,197,94,0.15)"/>
    <text x="400" y="369" fill="#22c55e" font-family="sans-serif" font-size="9" font-weight="600">BOOKED</text>
    <text x="490" y="368" fill="white" font-family="sans-serif" font-size="11" opacity="0.3">yesterday</text>

    <!-- Subtle border glow -->
    <rect x="0" y="0" width="560" height="400" rx="12" fill="none" stroke="rgba(212,175,55,0.08)" stroke-width="1"/>
  </g>
</svg>